<svg xmlns="http://www.w3.org/2000/svg" width="1600" height="900" viewBox="0 0 1600 900" role="img" aria-label="Abstract route texture">
  <defs>
    <linearGradient id="bg" x1="0" y1="0" x2="1" y2="1">
      <stop offset="0" stop-color="#111d27"/>
      <stop offset="0.58" stop-color="#0e1922"/>
      <stop offset="1" stop-color="#142330"/>
    </linearGradient>
    <pattern id="modules" width="74" height="74" patternUnits="userSpaceOnUse">
      <rect width="74" height="74" fill="none"/>
      <rect x="9" y="9" width="5" height="5" fill="#8edbd0" opacity="0.1"/>
      <rect x="22" y="9" width="5" height="5" fill="#d3edf0" opacity="0.08"/>
      <rect x="35" y="9" width="5" height="5" fill="#8edbd0" opacity="0.08"/>
      <rect x="48" y="9" width="5" height="5" fill="#d3edf0" opacity="0.06"/>
      <rect x="9" y="22" width="5" height="5" fill="#d3edf0" opacity="0.07"/>
      <rect x="35" y="22" width="5" height="5" fill="#8edbd0" opacity="0.08"/>
      <rect x="48" y="22" width="5" height="5" fill="#d3edf0" opacity="0.07"/>
      <rect x="22" y="35" width="5" height="5" fill="#8edbd0" opacity="0.09"/>
      <rect x="35" y="35" width="5" height="5" fill="#d3edf0" opacity="0.07"/>
      <rect x="61" y="35" width="5" height="5" fill="#8edbd0" opacity="0.08"/>
      <rect x="9" y="48" width="5" height="5" fill="#8edbd0" opacity="0.07"/>
      <rect x="22" y="48" width="5" height="5" fill="#d3edf0" opacity="0.06"/>
      <rect x="48" y="48" width="5" height="5" fill="#8edbd0" opacity="0.08"/>
      <rect x="61" y="61" width="5" height="5" fill="#d3edf0" opacity="0.06"/>
    </pattern>
    <filter id="soft"><feGaussianBlur stdDeviation="0.2"/></filter>
  </defs>
  <rect width="1600" height="900" fill="url(#bg)"/>
  <rect width="1600" height="900" fill="url(#modules)" opacity="0.95"/>
  <g fill="none" stroke-linecap="round" stroke-linejoin="round" filter="url(#soft)">
    <path d="M-40 270 C120 270 98 138 235 138 H438 C560 138 520 292 648 292 H790 C934 292 880 146 1018 146 H1640" stroke="#6bbec4" stroke-width="1.4" opacity="0.18"/>
    <path d="M-80 620 H154 C268 620 242 470 356 470 H604 C714 470 680 612 806 612 H1058 C1190 612 1148 446 1284 446 H1660" stroke="#1fbf9a" stroke-width="1.5" opacity="0.2"/>
    <path d="M120 900 V760 C120 670 236 694 236 604 V386 C236 294 360 330 360 238 V-40" stroke="#9cc9d0" stroke-width="1" opacity="0.16"/>
    <path d="M720 920 V786 C720 660 606 690 606 562 V344 C606 224 732 244 732 124 V-60" stroke="#6bbec4" stroke-width="1" opacity="0.15"/>
    <path d="M1280 920 V742 C1280 630 1398 656 1398 546 V320 C1398 210 1264 234 1264 104 V-40" stroke="#8edbd0" stroke-width="1" opacity="0.14"/>
    <path d="M0 420 C164 420 126 352 268 352 H484 C604 352 580 430 700 430 H980 C1114 430 1076 350 1200 350 H1600" stroke="#d3edf0" stroke-width="0.8" opacity="0.12" stroke-dasharray="5 12"/>
    <path d="M220 740 C342 660 448 728 550 638 C660 542 762 602 870 506 C978 410 1106 490 1228 394 C1332 312 1452 350 1600 278" stroke="#1fbf9a" stroke-width="0.9" opacity="0.12"/>
  </g>
  <g fill="#1fbf9a">
    <rect x="340" y="208" width="36" height="36" rx="3" opacity="0.18"/>
    <rect x="350" y="218" width="16" height="16" rx="2" opacity="0.45"/>
    <rect x="690" y="586" width="36" height="36" rx="3" opacity="0.2"/>
    <rect x="700" y="596" width="16" height="16" rx="2" opacity="0.5"/>
    <rect x="1178" y="420" width="32" height="32" rx="3" opacity="0.16"/>
    <rect x="1187" y="429" width="14" height="14" rx="2" opacity="0.42"/>
  </g>
  <g fill="#8edbd0" opacity="0.42">
    <circle cx="236" cy="604" r="6"/>
    <circle cx="606" cy="562" r="5"/>
    <circle cx="1018" cy="146" r="5"/>
    <circle cx="1284" cy="446" r="5"/>
    <circle cx="1452" cy="350" r="4"/>
  </g>
  <rect width="1600" height="900" fill="#071318" opacity="0.18"/>
</svg>
